# Blender v2.74 (sub 0) OBJ File: ''
# www.blender.org
mtllib truncatedCone.mtl
o Cylinder
v 0.000000 -1.000000 -1.000000
v -0.000000 1.000000 -0.497205
v 0.062791 -1.000000 -0.998027
v 0.031220 1.000000 -0.496224
v 0.125333 -1.000000 -0.992115
v 0.062316 1.000000 -0.493285
v 0.187381 -1.000000 -0.982287
v 0.093167 1.000000 -0.488398
v 0.248690 -1.000000 -0.968583
v 0.123650 1.000000 -0.481585
v 0.309017 -1.000000 -0.951057
v 0.153645 1.000000 -0.472870
v 0.368125 -1.000000 -0.929776
v 0.183033 1.000000 -0.462290
v 0.425779 -1.000000 -0.904827
v 0.211700 1.000000 -0.449885
v 0.481754 -1.000000 -0.876307
v 0.239530 1.000000 -0.435704
v 0.535827 -1.000000 -0.844328
v 0.266416 1.000000 -0.419804
v 0.587785 -1.000000 -0.809017
v 0.292250 1.000000 -0.402248
v 0.637424 -1.000000 -0.770513
v 0.316931 1.000000 -0.383103
v 0.684547 -1.000000 -0.728969
v 0.340360 1.000000 -0.362447
v 0.728969 -1.000000 -0.684547
v 0.362447 1.000000 -0.340361
v 0.770513 -1.000000 -0.637424
v 0.383103 1.000000 -0.316931
v 0.809017 -1.000000 -0.587785
v 0.402248 1.000000 -0.292250
v 0.844328 -1.000000 -0.535827
v 0.419804 1.000000 -0.266416
v 0.876307 -1.000000 -0.481753
v 0.435704 1.000000 -0.239531
v 0.904827 -1.000000 -0.425779
v 0.449885 1.000000 -0.211700
v 0.929777 -1.000000 -0.368124
v 0.462290 1.000000 -0.183034
v 0.951057 -1.000000 -0.309017
v 0.472870 1.000000 -0.153645
v 0.968583 -1.000000 -0.248690
v 0.481585 1.000000 -0.123650
v 0.982287 -1.000000 -0.187381
v 0.488398 1.000000 -0.093167
v 0.992115 -1.000000 -0.125333
v 0.493285 1.000000 -0.062316
v 0.998027 -1.000000 -0.062790
v 0.496224 1.000000 -0.031220
v 1.000000 -1.000000 0.000000
v 0.497205 1.000000 0.000000
v 0.998027 -1.000000 0.062791
v 0.496224 1.000000 0.031220
v 0.992115 -1.000000 0.125334
v 0.493285 1.000000 0.062316
v 0.982287 -1.000000 0.187382
v 0.488398 1.000000 0.093167
v 0.968583 -1.000000 0.248690
v 0.481585 1.000000 0.123650
v 0.951056 -1.000000 0.309018
v 0.472870 1.000000 0.153645
v 0.929776 -1.000000 0.368125
v 0.462290 1.000000 0.183034
v 0.904827 -1.000000 0.425780
v 0.449885 1.000000 0.211700
v 0.876306 -1.000000 0.481754
v 0.435704 1.000000 0.239531
v 0.844328 -1.000000 0.535827
v 0.419804 1.000000 0.266416
v 0.809017 -1.000000 0.587786
v 0.402247 1.000000 0.292250
v 0.770513 -1.000000 0.637425
v 0.383103 1.000000 0.316931
v 0.728968 -1.000000 0.684548
v 0.362447 1.000000 0.340360
v 0.684547 -1.000000 0.728969
v 0.340360 1.000000 0.362447
v 0.637423 -1.000000 0.770514
v 0.316930 1.000000 0.383103
v 0.587785 -1.000000 0.809017
v 0.292250 1.000000 0.402248
v 0.535826 -1.000000 0.844328
v 0.266416 1.000000 0.419804
v 0.481753 -1.000000 0.876307
v 0.239530 1.000000 0.435704
v 0.425779 -1.000000 0.904827
v 0.211699 1.000000 0.449885
v 0.368124 -1.000000 0.929777
v 0.183033 1.000000 0.462290
v 0.309016 -1.000000 0.951057
v 0.153644 1.000000 0.472870
v 0.248689 -1.000000 0.968583
v 0.123649 1.000000 0.481585
v 0.187380 -1.000000 0.982287
v 0.093166 1.000000 0.488398
v 0.125332 -1.000000 0.992115
v 0.062316 1.000000 0.493284
v 0.062790 -1.000000 0.998027
v 0.031219 1.000000 0.496224
v -0.000001 -1.000000 1.000000
v -0.000001 1.000000 0.497205
v -0.062792 -1.000000 0.998027
v -0.031220 1.000000 0.496224
v -0.125334 -1.000000 0.992115
v -0.062317 1.000000 0.493284
v -0.187382 -1.000000 0.982287
v -0.093168 1.000000 0.488398
v -0.248691 -1.000000 0.968583
v -0.123650 1.000000 0.481584
v -0.309018 -1.000000 0.951056
v -0.153645 1.000000 0.472870
v -0.368126 -1.000000 0.929776
v -0.183034 1.000000 0.462289
v -0.425780 -1.000000 0.904827
v -0.211700 1.000000 0.449884
v -0.481755 -1.000000 0.876306
v -0.239531 1.000000 0.435704
v -0.535828 -1.000000 0.844327
v -0.266416 1.000000 0.419804
v -0.587786 -1.000000 0.809016
v -0.292250 1.000000 0.402247
v -0.637425 -1.000000 0.770512
v -0.316931 1.000000 0.383103
v -0.684548 -1.000000 0.728968
v -0.340361 1.000000 0.362446
v -0.728970 -1.000000 0.684546
v -0.362447 1.000000 0.340360
v -0.770514 -1.000000 0.637423
v -0.383104 1.000000 0.316930
v -0.809018 -1.000000 0.587784
v -0.402248 1.000000 0.292249
v -0.844329 -1.000000 0.535826
v -0.419805 1.000000 0.266415
v -0.876307 -1.000000 0.481753
v -0.435705 1.000000 0.239530
v -0.904828 -1.000000 0.425778
v -0.449885 1.000000 0.211699
v -0.929777 -1.000000 0.368123
v -0.462290 1.000000 0.183033
v -0.951057 -1.000000 0.309016
v -0.472870 1.000000 0.153644
v -0.968583 -1.000000 0.248689
v -0.481585 1.000000 0.123649
v -0.982288 -1.000000 0.187380
v -0.488398 1.000000 0.093166
v -0.992115 -1.000000 0.125332
v -0.493285 1.000000 0.062315
v -0.998027 -1.000000 0.062789
v -0.496224 1.000000 0.031219
v -1.000000 -1.000000 -0.000001
v -0.497205 1.000000 -0.000001
v -0.998027 -1.000000 -0.062792
v -0.496224 1.000000 -0.031221
v -0.992115 -1.000000 -0.125335
v -0.493284 1.000000 -0.062317
v -0.982287 -1.000000 -0.187383
v -0.488398 1.000000 -0.093168
v -0.968583 -1.000000 -0.248691
v -0.481584 1.000000 -0.123651
v -0.951056 -1.000000 -0.309018
v -0.472870 1.000000 -0.153646
v -0.929776 -1.000000 -0.368126
v -0.462289 1.000000 -0.183034
v -0.904826 -1.000000 -0.425781
v -0.449884 1.000000 -0.211701
v -0.876306 -1.000000 -0.481755
v -0.435704 1.000000 -0.239531
v -0.844327 -1.000000 -0.535828
v -0.419804 1.000000 -0.266417
v -0.809016 -1.000000 -0.587787
v -0.402247 1.000000 -0.292251
v -0.770512 -1.000000 -0.637425
v -0.383103 1.000000 -0.316931
v -0.728967 -1.000000 -0.684548
v -0.362446 1.000000 -0.340361
v -0.684546 -1.000000 -0.728970
v -0.340360 1.000000 -0.362448
v -0.637423 -1.000000 -0.770514
v -0.316930 1.000000 -0.383104
v -0.587784 -1.000000 -0.809018
v -0.292249 1.000000 -0.402248
v -0.535825 -1.000000 -0.844329
v -0.266415 1.000000 -0.419805
v -0.481752 -1.000000 -0.876308
v -0.239530 1.000000 -0.435705
v -0.425778 -1.000000 -0.904828
v -0.211699 1.000000 -0.449885
v -0.368123 -1.000000 -0.929777
v -0.183033 1.000000 -0.462290
v -0.309015 -1.000000 -0.951057
v -0.153644 1.000000 -0.472871
v -0.248688 -1.000000 -0.968584
v -0.123649 1.000000 -0.481585
v -0.187379 -1.000000 -0.982288
v -0.093166 1.000000 -0.488399
v -0.125331 -1.000000 -0.992115
v -0.062315 1.000000 -0.493285
v -0.062788 -1.000000 -0.998027
v -0.031219 1.000000 -0.496224
vt 1.000000 0.000000
vt 1.000000 1.000000
vt 0.000000 1.000000
vt 0.000000 0.000000
vt 0.842274 0.864484
vt 0.206107 0.095492
vt 0.259124 0.938154
vt 0.991144 0.406309
vt 0.000987 0.531396
vt 0.437334 0.996058
vt 0.468606 0.999013
vt 0.500000 1.000000
vt 0.375656 0.984292
vt 0.406310 0.991144
vt 0.345492 0.975529
vt 0.287111 0.952414
vt 0.315939 0.964889
vt 0.157727 0.864485
vt 0.232087 0.922164
vt 0.181289 0.885257
vt 0.206108 0.904509
vt 0.114744 0.818713
vt 0.135516 0.842274
vt 0.077836 0.767914
vt 0.095492 0.793893
vt 0.047587 0.712890
vt 0.061847 0.740878
vt 0.024472 0.654509
vt 0.035112 0.684063
vt 0.008857 0.593691
vt 0.015709 0.624346
vt 0.003943 0.562667
vt 0.008856 0.406310
vt 0.000000 0.500001
vt 0.003943 0.437334
vt 0.000987 0.468605
vt 0.024472 0.345492
vt 0.015708 0.375656
vt 0.035112 0.315938
vt 0.077836 0.232087
vt 0.061846 0.259124
vt 0.047586 0.287111
vt 0.114743 0.181288
vt 0.095491 0.206108
vt 0.157726 0.135516
vt 0.135515 0.157727
vt 0.181287 0.114744
vt 0.259123 0.061847
vt 0.232086 0.077836
vt 0.287110 0.047587
vt 0.375655 0.015709
vt 0.345491 0.024472
vt 0.315937 0.035112
vt 0.437333 0.003943
vt 0.406309 0.008856
vt 0.499999 0.000000
vt 0.468604 0.000987
vt 0.531395 0.000987
vt 0.684062 0.035112
vt 0.593690 0.008856
vt 0.562666 0.003943
vt 0.654508 0.024472
vt 0.624344 0.015708
vt 0.740876 0.061846
vt 0.712889 0.047586
vt 0.767913 0.077836
vt 0.885256 0.181288
vt 0.818712 0.114743
vt 0.793892 0.095491
vt 0.864484 0.157726
vt 0.842273 0.135515
vt 0.922164 0.232086
vt 0.904508 0.206107
vt 0.952413 0.287110
vt 0.938153 0.259123
vt 0.975528 0.345491
vt 0.964888 0.315937
vt 0.984292 0.375655
vt 0.999013 0.531395
vt 0.996057 0.437333
vt 1.000000 0.500000
vt 0.999013 0.468605
vt 0.991144 0.593691
vt 0.996057 0.562666
vt 0.975528 0.654508
vt 0.984292 0.624345
vt 0.922164 0.767913
vt 0.964888 0.684062
vt 0.938153 0.740877
vt 0.952414 0.712890
vt 0.885257 0.818712
vt 0.904509 0.793893
vt 0.864484 0.842273
vt 0.740877 0.938153
vt 0.818712 0.885257
vt 0.767913 0.922164
vt 0.793893 0.904508
vt 0.684062 0.964888
vt 0.712890 0.952414
vt 0.654508 0.975528
vt 0.562667 0.996057
vt 0.593691 0.991144
vt 0.624345 0.984292
vt 0.531395 0.999013
vn 0.030500 0.243700 -0.969400
vn 0.091300 0.243700 -0.965500
vn 0.151700 0.243700 -0.957900
vn 0.211600 0.243700 -0.946500
vn 0.270600 0.243700 -0.931300
vn 0.328500 0.243700 -0.912500
vn 0.385200 0.243700 -0.890100
vn 0.440300 0.243700 -0.864100
vn 0.493700 0.243700 -0.834800
vn 0.545100 0.243700 -0.802100
vn 0.594400 0.243700 -0.766300
vn 0.641400 0.243700 -0.727500
vn 0.685800 0.243700 -0.685800
vn 0.727500 0.243700 -0.641400
vn 0.766300 0.243700 -0.594400
vn 0.802100 0.243700 -0.545100
vn 0.834800 0.243700 -0.493700
vn 0.864100 0.243700 -0.440300
vn 0.890100 0.243700 -0.385200
vn 0.912500 0.243700 -0.328500
vn 0.931300 0.243700 -0.270600
vn 0.946500 0.243700 -0.211600
vn 0.957900 0.243700 -0.151700
vn 0.965500 0.243700 -0.091300
vn 0.969400 0.243700 -0.030500
vn 0.969400 0.243700 0.030500
vn 0.965500 0.243700 0.091300
vn 0.957900 0.243700 0.151700
vn 0.946500 0.243700 0.211600
vn 0.931300 0.243700 0.270600
vn 0.912500 0.243700 0.328500
vn 0.890100 0.243700 0.385200
vn 0.864100 0.243700 0.440300
vn 0.834800 0.243700 0.493700
vn 0.802100 0.243700 0.545100
vn 0.766300 0.243700 0.594400
vn 0.727500 0.243700 0.641400
vn 0.685800 0.243700 0.685800
vn 0.641400 0.243700 0.727500
vn 0.594400 0.243700 0.766300
vn 0.545100 0.243700 0.802100
vn 0.493700 0.243700 0.834800
vn 0.440300 0.243700 0.864100
vn 0.385200 0.243700 0.890100
vn 0.328500 0.243700 0.912500
vn 0.270600 0.243700 0.931300
vn 0.211600 0.243700 0.946500
vn 0.151700 0.243700 0.957900
vn 0.091300 0.243700 0.965500
vn 0.030500 0.243700 0.969400
vn -0.030500 0.243700 0.969400
vn -0.091300 0.243700 0.965500
vn -0.151700 0.243700 0.957900
vn -0.211600 0.243700 0.946500
vn -0.270600 0.243700 0.931300
vn -0.328500 0.243700 0.912500
vn -0.385200 0.243700 0.890100
vn -0.440300 0.243700 0.864100
vn -0.493700 0.243700 0.834800
vn -0.545100 0.243700 0.802100
vn -0.594400 0.243700 0.766300
vn -0.641400 0.243700 0.727500
vn -0.685800 0.243700 0.685800
vn -0.727500 0.243700 0.641400
vn -0.766300 0.243700 0.594400
vn -0.802100 0.243700 0.545100
vn -0.834800 0.243700 0.493700
vn -0.864100 0.243700 0.440300
vn -0.890100 0.243700 0.385200
vn -0.912500 0.243700 0.328500
vn -0.931300 0.243700 0.270600
vn -0.946500 0.243700 0.211600
vn -0.957900 0.243700 0.151700
vn -0.965500 0.243700 0.091300
vn -0.969400 0.243700 0.030500
vn -0.969400 0.243700 -0.030500
vn -0.965500 0.243700 -0.091300
vn -0.957900 0.243700 -0.151700
vn -0.946500 0.243700 -0.211600
vn -0.931300 0.243700 -0.270600
vn -0.912500 0.243700 -0.328500
vn -0.890100 0.243700 -0.385200
vn -0.864100 0.243700 -0.440300
vn -0.834800 0.243700 -0.493700
vn -0.802100 0.243700 -0.545100
vn -0.766300 0.243700 -0.594400
vn -0.727500 0.243700 -0.641400
vn -0.685800 0.243700 -0.685800
vn -0.641400 0.243700 -0.727500
vn -0.594400 0.243700 -0.766300
vn -0.545100 0.243700 -0.802100
vn -0.493700 0.243700 -0.834800
vn -0.440300 0.243700 -0.864100
vn -0.385200 0.243700 -0.890100
vn -0.328500 0.243700 -0.912500
vn -0.270600 0.243700 -0.931300
vn -0.211600 0.243700 -0.946500
vn -0.151700 0.243700 -0.957900
vn 0.000000 1.000000 0.000000
vn -0.030500 0.243700 -0.969400
vn -0.091300 0.243700 -0.965500
vn 0.000000 -1.000000 0.000000
usemtl None
s off
f 2/1/1 4/2/1 3/3/1
f 4/1/2 6/2/2 5/3/2
f 6/1/3 8/2/3 7/3/3
f 7/4/4 8/1/4 10/2/4
f 9/4/5 10/1/5 12/2/5
f 11/4/6 12/1/6 14/2/6
f 14/1/7 16/2/7 15/3/7
f 16/1/8 18/2/8 17/3/8
f 18/1/9 20/2/9 19/3/9
f 19/4/10 20/1/10 22/2/10
f 21/4/11 22/1/11 24/2/11
f 23/4/12 24/1/12 26/2/12
f 26/1/13 28/2/13 27/3/13
f 28/1/14 30/2/14 29/3/14
f 29/4/15 30/1/15 32/2/15
f 32/1/16 34/2/16 33/3/16
f 33/4/17 34/1/17 36/2/17
f 35/4/18 36/1/18 38/2/18
f 38/1/19 40/2/19 39/3/19
f 39/4/20 40/1/20 42/2/20
f 42/1/21 44/2/21 43/3/21
f 44/1/22 46/2/22 45/3/22
f 46/1/23 48/2/23 47/3/23
f 48/1/24 50/2/24 49/3/24
f 50/1/25 52/2/25 51/3/25
f 52/1/26 54/2/26 53/3/26
f 54/1/27 56/2/27 55/3/27
f 56/1/28 58/2/28 57/3/28
f 58/1/29 60/2/29 59/3/29
f 60/1/30 62/2/30 61/3/30
f 61/4/31 62/1/31 64/2/31
f 63/4/32 64/1/32 66/2/32
f 65/4/33 66/1/33 68/2/33
f 67/4/34 68/1/34 70/2/34
f 70/1/35 72/2/35 71/3/35
f 72/1/36 74/2/36 73/3/36
f 73/4/37 74/1/37 76/2/37
f 76/1/38 78/2/38 77/3/38
f 77/4/39 78/1/39 80/2/39
f 79/4/40 80/1/40 82/2/40
f 81/4/41 82/1/41 84/2/41
f 83/4/42 84/1/42 86/2/42
f 86/1/43 88/2/43 87/3/43
f 88/1/44 90/2/44 89/3/44
f 90/1/45 92/2/45 91/3/45
f 91/4/46 92/1/46 94/2/46
f 94/1/47 96/2/47 95/3/47
f 96/1/48 98/2/48 97/3/48
f 98/1/49 100/2/49 99/3/49
f 99/4/50 100/1/50 102/2/50
f 102/1/51 104/2/51 103/3/51
f 104/1/52 106/2/52 105/3/52
f 105/4/53 106/1/53 108/2/53
f 107/4/54 108/1/54 110/2/54
f 110/1/55 112/2/55 111/3/55
f 112/1/56 114/2/56 113/3/56
f 113/4/57 114/1/57 116/2/57
f 116/1/58 118/2/58 117/3/58
f 117/4/59 118/1/59 120/2/59
f 119/4/60 120/1/60 122/2/60
f 122/1/61 124/2/61 123/3/61
f 123/4/62 124/1/62 126/2/62
f 126/1/63 128/2/63 127/3/63
f 128/1/64 130/2/64 129/3/64
f 130/1/65 132/2/65 131/3/65
f 132/1/66 134/2/66 133/3/66
f 133/4/67 134/1/67 136/2/67
f 135/4/68 136/1/68 138/2/68
f 137/4/69 138/1/69 140/2/69
f 140/1/70 142/2/70 141/3/70
f 142/1/71 144/2/71 143/3/71
f 144/1/72 146/2/72 145/3/72
f 145/4/73 146/1/73 148/2/73
f 148/1/74 150/2/74 149/3/74
f 150/1/75 152/2/75 151/3/75
f 152/1/76 154/2/76 153/3/76
f 154/1/77 156/2/77 155/3/77
f 156/1/78 158/2/78 157/3/78
f 158/1/79 160/2/79 159/3/79
f 159/4/80 160/1/80 162/2/80
f 161/4/81 162/1/81 164/2/81
f 164/1/82 166/2/82 165/3/82
f 166/1/83 168/2/83 167/3/83
f 167/4/84 168/1/84 170/2/84
f 170/1/85 172/2/85 171/3/85
f 171/4/86 172/1/86 174/2/86
f 173/4/87 174/1/87 176/2/87
f 176/1/88 178/2/88 177/3/88
f 177/4/89 178/1/89 180/2/89
f 180/1/90 182/2/90 181/3/90
f 182/1/91 184/2/91 183/3/91
f 183/4/92 184/1/92 186/2/92
f 185/4/93 186/1/93 188/2/93
f 187/4/94 188/1/94 190/2/94
f 190/1/95 192/2/95 191/3/95
f 191/4/96 192/1/96 194/2/96
f 193/4/97 194/1/97 196/2/97
f 196/1/98 198/2/98 197/3/98
f 180/5/99 84/6/99 20/7/99
f 199/4/100 200/1/100 2/2/100
f 198/1/101 200/2/101 199/3/101
f 57/8/102 121/6/102 153/9/102
f 1/4/1 2/1/1 3/3/1
f 3/4/2 4/1/2 5/3/2
f 5/4/3 6/1/3 7/3/3
f 9/3/4 7/4/4 10/2/4
f 11/3/5 9/4/5 12/2/5
f 13/3/6 11/4/6 14/2/6
f 13/4/7 14/1/7 15/3/7
f 15/4/8 16/1/8 17/3/8
f 17/4/9 18/1/9 19/3/9
f 21/3/10 19/4/10 22/2/10
f 23/3/11 21/4/11 24/2/11
f 25/3/12 23/4/12 26/2/12
f 25/4/13 26/1/13 27/3/13
f 27/4/14 28/1/14 29/3/14
f 31/3/15 29/4/15 32/2/15
f 31/4/16 32/1/16 33/3/16
f 35/3/17 33/4/17 36/2/17
f 37/3/18 35/4/18 38/2/18
f 37/4/19 38/1/19 39/3/19
f 41/3/20 39/4/20 42/2/20
f 41/4/21 42/1/21 43/3/21
f 43/4/22 44/1/22 45/3/22
f 45/4/23 46/1/23 47/3/23
f 47/4/24 48/1/24 49/3/24
f 49/4/25 50/1/25 51/3/25
f 51/4/26 52/1/26 53/3/26
f 53/4/27 54/1/27 55/3/27
f 55/4/28 56/1/28 57/3/28
f 57/4/29 58/1/29 59/3/29
f 59/4/30 60/1/30 61/3/30
f 63/3/31 61/4/31 64/2/31
f 65/3/32 63/4/32 66/2/32
f 67/3/33 65/4/33 68/2/33
f 69/3/34 67/4/34 70/2/34
f 69/4/35 70/1/35 71/3/35
f 71/4/36 72/1/36 73/3/36
f 75/3/37 73/4/37 76/2/37
f 75/4/38 76/1/38 77/3/38
f 79/3/39 77/4/39 80/2/39
f 81/3/40 79/4/40 82/2/40
f 83/3/41 81/4/41 84/2/41
f 85/3/42 83/4/42 86/2/42
f 85/4/43 86/1/43 87/3/43
f 87/4/44 88/1/44 89/3/44
f 89/4/45 90/1/45 91/3/45
f 93/3/46 91/4/46 94/2/46
f 93/4/47 94/1/47 95/3/47
f 95/4/48 96/1/48 97/3/48
f 97/4/49 98/1/49 99/3/49
f 101/3/50 99/4/50 102/2/50
f 101/4/51 102/1/51 103/3/51
f 103/4/52 104/1/52 105/3/52
f 107/3/53 105/4/53 108/2/53
f 109/3/54 107/4/54 110/2/54
f 109/4/55 110/1/55 111/3/55
f 111/4/56 112/1/56 113/3/56
f 115/3/57 113/4/57 116/2/57
f 115/4/58 116/1/58 117/3/58
f 119/3/59 117/4/59 120/2/59
f 121/3/60 119/4/60 122/2/60
f 121/4/61 122/1/61 123/3/61
f 125/3/62 123/4/62 126/2/62
f 125/4/63 126/1/63 127/3/63
f 127/4/64 128/1/64 129/3/64
f 129/4/65 130/1/65 131/3/65
f 131/4/66 132/1/66 133/3/66
f 135/3/67 133/4/67 136/2/67
f 137/3/68 135/4/68 138/2/68
f 139/3/69 137/4/69 140/2/69
f 139/4/70 140/1/70 141/3/70
f 141/4/71 142/1/71 143/3/71
f 143/4/72 144/1/72 145/3/72
f 147/3/73 145/4/73 148/2/73
f 147/4/74 148/1/74 149/3/74
f 149/4/75 150/1/75 151/3/75
f 151/4/76 152/1/76 153/3/76
f 153/4/77 154/1/77 155/3/77
f 155/4/78 156/1/78 157/3/78
f 157/4/79 158/1/79 159/3/79
f 161/3/80 159/4/80 162/2/80
f 163/3/81 161/4/81 164/2/81
f 163/4/82 164/1/82 165/3/82
f 165/4/83 166/1/83 167/3/83
f 169/3/84 167/4/84 170/2/84
f 169/4/85 170/1/85 171/3/85
f 173/3/86 171/4/86 174/2/86
f 175/3/87 173/4/87 176/2/87
f 175/4/88 176/1/88 177/3/88
f 179/3/89 177/4/89 180/2/89
f 179/4/90 180/1/90 181/3/90
f 181/4/91 182/1/91 183/3/91
f 185/3/92 183/4/92 186/2/92
f 187/3/93 185/4/93 188/2/93
f 189/3/94 187/4/94 190/2/94
f 189/4/95 190/1/95 191/3/95
f 193/3/96 191/4/96 194/2/96
f 195/3/97 193/4/97 196/2/97
f 195/4/98 196/1/98 197/3/98
f 8/10/99 6/11/99 4/12/99
f 12/13/99 10/14/99 8/10/99
f 20/7/99 14/15/99 12/13/99
f 20/7/99 18/16/99 16/17/99
f 28/18/99 22/19/99 20/7/99
f 28/18/99 26/20/99 24/21/99
f 32/22/99 30/23/99 28/18/99
f 36/24/99 34/25/99 32/22/99
f 40/26/99 38/27/99 36/24/99
f 44/28/99 42/29/99 40/26/99
f 48/30/99 46/31/99 44/28/99
f 44/28/99 50/32/99 48/30/99
f 60/33/99 54/34/99 52/9/99
f 60/33/99 58/35/99 56/36/99
f 64/37/99 62/38/99 60/33/99
f 60/33/99 66/39/99 64/37/99
f 72/40/99 70/41/99 68/42/99
f 76/43/99 74/44/99 72/40/99
f 80/45/99 78/46/99 76/43/99
f 84/6/99 82/47/99 80/45/99
f 88/48/99 86/49/99 84/6/99
f 84/6/99 90/50/99 88/48/99
f 96/51/99 94/52/99 92/53/99
f 100/54/99 98/55/99 96/51/99
f 104/56/99 102/57/99 100/54/99
f 100/54/99 106/58/99 104/56/99
f 116/59/99 110/60/99 108/61/99
f 116/59/99 114/62/99 112/63/99
f 120/64/99 118/65/99 116/59/99
f 116/59/99 122/66/99 120/64/99
f 132/67/99 126/68/99 124/69/99
f 132/67/99 130/70/99 128/71/99
f 136/72/99 134/73/99 132/67/99
f 140/74/99 138/75/99 136/72/99
f 144/76/99 142/77/99 140/74/99
f 148/8/99 146/78/99 144/76/99
f 156/79/99 150/80/99 148/8/99
f 156/79/99 154/81/99 152/82/99
f 160/83/99 158/84/99 156/79/99
f 164/85/99 162/86/99 160/83/99
f 172/87/99 166/88/99 164/85/99
f 172/87/99 170/89/99 168/90/99
f 176/91/99 174/92/99 172/87/99
f 180/5/99 178/93/99 176/91/99
f 188/94/99 182/95/99 180/5/99
f 188/94/99 186/96/99 184/97/99
f 192/98/99 190/99/99 188/94/99
f 188/94/99 194/100/99 192/98/99
f 200/101/99 198/102/99 196/103/99
f 4/12/99 2/104/99 200/101/99
f 20/7/99 8/10/99 4/12/99
f 20/7/99 16/17/99 14/15/99
f 28/18/99 24/21/99 22/19/99
f 20/7/99 32/22/99 28/18/99
f 52/9/99 40/26/99 36/24/99
f 52/9/99 50/32/99 44/28/99
f 60/33/99 56/36/99 54/34/99
f 68/42/99 66/39/99 60/33/99
f 84/6/99 72/40/99 68/42/99
f 84/6/99 80/45/99 76/43/99
f 92/53/99 90/50/99 84/6/99
f 84/6/99 96/51/99 92/53/99
f 108/61/99 106/58/99 100/54/99
f 116/59/99 112/63/99 110/60/99
f 124/69/99 122/66/99 116/59/99
f 132/67/99 128/71/99 126/68/99
f 140/74/99 136/72/99 132/67/99
f 132/67/99 144/76/99 140/74/99
f 156/79/99 152/82/99 150/80/99
f 148/8/99 160/83/99 156/79/99
f 172/87/99 168/90/99 166/88/99
f 164/85/99 176/91/99 172/87/99
f 188/94/99 184/97/99 182/95/99
f 196/103/99 194/100/99 188/94/99
f 20/7/99 200/101/99 196/103/99
f 20/7/99 12/13/99 8/10/99
f 36/24/99 32/22/99 20/7/99
f 52/9/99 44/28/99 40/26/99
f 84/6/99 60/33/99 52/9/99
f 84/6/99 76/43/99 72/40/99
f 100/54/99 96/51/99 84/6/99
f 116/59/99 108/61/99 100/54/99
f 132/67/99 124/69/99 116/59/99
f 148/8/99 144/76/99 132/67/99
f 164/85/99 160/83/99 148/8/99
f 180/5/99 176/91/99 164/85/99
f 20/7/99 188/94/99 180/5/99
f 20/7/99 4/12/99 200/101/99
f 84/6/99 36/24/99 20/7/99
f 84/6/99 68/42/99 60/33/99
f 116/59/99 100/54/99 84/6/99
f 148/8/99 132/67/99 116/59/99
f 180/5/99 164/85/99 148/8/99
f 20/7/99 196/103/99 188/94/99
f 84/6/99 52/9/99 36/24/99
f 148/8/99 116/59/99 84/6/99
f 84/6/99 180/5/99 148/8/99
f 1/3/100 199/4/100 2/2/100
f 197/4/101 198/1/101 199/3/101
f 197/10/102 199/11/102 1/12/102
f 193/13/102 195/14/102 197/10/102
f 189/17/102 191/15/102 193/13/102
f 193/13/102 187/16/102 189/17/102
f 181/21/102 183/19/102 185/7/102
f 177/18/102 179/20/102 181/21/102
f 169/24/102 175/23/102 177/18/102
f 169/24/102 171/25/102 173/22/102
f 161/28/102 167/27/102 169/24/102
f 161/28/102 163/29/102 165/26/102
f 153/9/102 159/31/102 161/28/102
f 153/9/102 155/32/102 157/30/102
f 149/36/102 151/34/102 153/9/102
f 145/33/102 147/35/102 149/36/102
f 141/37/102 143/38/102 145/33/102
f 137/42/102 139/39/102 141/37/102
f 129/43/102 135/41/102 137/42/102
f 129/43/102 131/44/102 133/40/102
f 125/45/102 127/46/102 129/43/102
f 121/6/102 123/47/102 125/45/102
f 117/48/102 119/49/102 121/6/102
f 113/53/102 115/50/102 117/48/102
f 109/51/102 111/52/102 113/53/102
f 105/54/102 107/55/102 109/51/102
f 101/56/102 103/57/102 105/54/102
f 105/54/102 99/58/102 101/56/102
f 89/59/102 95/60/102 97/61/102
f 89/59/102 91/62/102 93/63/102
f 85/64/102 87/65/102 89/59/102
f 89/59/102 83/66/102 85/64/102
f 77/71/102 79/68/102 81/69/102
f 81/69/102 75/70/102 77/71/102
f 69/72/102 71/73/102 73/67/102
f 65/74/102 67/75/102 69/72/102
f 61/76/102 63/77/102 65/74/102
f 57/8/102 59/78/102 61/76/102
f 53/82/102 55/80/102 57/8/102
f 57/8/102 51/81/102 53/82/102
f 45/83/102 47/84/102 49/79/102
f 49/79/102 43/86/102 45/83/102
f 37/90/102 39/88/102 41/85/102
f 33/87/102 35/89/102 37/90/102
f 25/5/102 31/92/102 33/87/102
f 25/5/102 27/93/102 29/91/102
f 21/97/102 23/95/102 25/5/102
f 17/94/102 19/96/102 21/97/102
f 13/98/102 15/99/102 17/94/102
f 9/103/102 11/100/102 13/98/102
f 1/12/102 7/102/102 9/103/102
f 1/12/102 3/104/102 5/101/102
f 193/13/102 197/10/102 1/12/102
f 185/7/102 187/16/102 193/13/102
f 169/24/102 181/21/102 185/7/102
f 169/24/102 173/22/102 175/23/102
f 161/28/102 165/26/102 167/27/102
f 153/9/102 157/30/102 159/31/102
f 145/33/102 149/36/102 153/9/102
f 153/9/102 141/37/102 145/33/102
f 129/43/102 133/40/102 135/41/102
f 137/42/102 125/45/102 129/43/102
f 105/54/102 117/48/102 121/6/102
f 105/54/102 109/51/102 113/53/102
f 97/61/102 99/58/102 105/54/102
f 89/59/102 93/63/102 95/60/102
f 81/69/102 83/66/102 89/59/102
f 73/67/102 75/70/102 81/69/102
f 57/8/102 69/72/102 73/67/102
f 57/8/102 61/76/102 65/74/102
f 49/79/102 51/81/102 57/8/102
f 41/85/102 43/86/102 49/79/102
f 25/5/102 37/90/102 41/85/102
f 25/5/102 29/91/102 31/92/102
f 9/103/102 21/97/102 25/5/102
f 9/103/102 13/98/102 17/94/102
f 1/12/102 5/101/102 7/102/102
f 185/7/102 193/13/102 1/12/102
f 169/24/102 177/18/102 181/21/102
f 153/9/102 161/28/102 169/24/102
f 137/42/102 141/37/102 153/9/102
f 121/6/102 125/45/102 137/42/102
f 105/54/102 113/53/102 117/48/102
f 89/59/102 97/61/102 105/54/102
f 73/67/102 81/69/102 89/59/102
f 57/8/102 65/74/102 69/72/102
f 25/5/102 49/79/102 57/8/102
f 25/5/102 33/87/102 37/90/102
f 9/103/102 17/94/102 21/97/102
f 25/5/102 1/12/102 9/103/102
f 153/9/102 169/24/102 185/7/102
f 121/6/102 137/42/102 153/9/102
f 89/59/102 105/54/102 121/6/102
f 57/8/102 73/67/102 89/59/102
f 25/5/102 41/85/102 49/79/102
f 185/7/102 1/12/102 25/5/102
f 57/8/102 153/9/102 185/7/102
f 57/8/102 89/59/102 121/6/102
f 185/7/102 25/5/102 57/8/102
